<svg id="visual" viewBox="0 0 800 2000" width="800" height="2000" xmlns="http://www.w3.org/2000/svg" xmlns:xlink="http://www.w3.org/1999/xlink" version="1.1"><rect x="0" y="0" width="800" height="2000" fill="#060b06"></rect><g fill="#0b0e0b"><circle r="27" cx="397" cy="27"></circle><circle r="16" cx="668" cy="428"></circle><circle r="18" cx="36" cy="26"></circle><circle r="15" cx="299" cy="917"></circle><circle r="17" cx="709" cy="244"></circle><circle r="21" cx="334" cy="1598"></circle><circle r="20" cx="293" cy="1728"></circle><circle r="21" cx="607" cy="30"></circle><circle r="22" cx="562" cy="1865"></circle><circle r="20" cx="670" cy="1934"></circle><circle r="20" cx="249" cy="1920"></circle><circle r="15" cx="208" cy="1292"></circle><circle r="21" cx="177" cy="52"></circle><circle r="20" cx="224" cy="162"></circle><circle r="19" cx="784" cy="760"></circle><circle r="18" cx="282" cy="710"></circle><circle r="22" cx="348" cy="1959"></circle><circle r="15" cx="52" cy="329"></circle><circle r="24" cx="469" cy="151"></circle><circle r="22" cx="418" cy="1688"></circle><circle r="23" cx="485" cy="616"></circle><circle r="24" cx="69" cy="1794"></circle><circle r="18" cx="570" cy="84"></circle><circle r="18" cx="141" cy="685"></circle><circle r="20" cx="131" cy="1651"></circle><circle r="20" cx="364" cy="1356"></circle><circle r="20" cx="328" cy="1487"></circle><circle r="15" cx="639" cy="1277"></circle><circle r="25" cx="540" cy="1074"></circle><circle r="17" cx="401" cy="1780"></circle><circle r="16" cx="507" cy="1661"></circle><circle r="25" cx="776" cy="1194"></circle><circle r="21" cx="340" cy="621"></circle><circle r="18" cx="682" cy="185"></circle><circle r="20" cx="749" cy="1713"></circle><circle r="19" cx="527" cy="1596"></circle><circle r="23" cx="695" cy="887"></circle><circle r="22" cx="239" cy="1627"></circle><circle r="17" cx="208" cy="1429"></circle><circle r="21" cx="23" cy="1282"></circle><circle r="24" cx="582" cy="1581"></circle><circle r="21" cx="497" cy="976"></circle><circle r="23" cx="352" cy="402"></circle><circle r="15" cx="27" cy="1086"></circle><circle r="16" cx="654" cy="1874"></circle><circle r="20" cx="247" cy="1047"></circle><circle r="21" cx="623" cy="1963"></circle><circle r="25" cx="429" cy="554"></circle><circle r="17" cx="415" cy="1473"></circle><circle r="15" cx="274" cy="1825"></circle><circle r="17" cx="773" cy="838"></circle><circle r="25" cx="271" cy="1156"></circle><circle r="20" cx="53" cy="1146"></circle><circle r="16" cx="157" cy="442"></circle><circle r="22" cx="426" cy="882"></circle><circle r="19" cx="502" cy="1867"></circle><circle r="22" cx="405" cy="816"></circle><circle r="16" cx="694" cy="1379"></circle><circle r="23" cx="3" cy="1348"></circle><circle r="19" cx="292" cy="827"></circle><circle r="15" cx="4" cy="779"></circle><circle r="25" cx="108" cy="92"></circle><circle r="18" cx="84" cy="374"></circle><circle r="20" cx="306" cy="330"></circle><circle r="18" cx="481" cy="318"></circle><circle r="18" cx="316" cy="1666"></circle><circle r="24" cx="21" cy="1688"></circle><circle r="23" cx="53" cy="728"></circle><circle r="24" cx="160" cy="919"></circle><circle r="21" cx="581" cy="1718"></circle></g></svg>