<?xml version="1.0" encoding="UTF-8"?>
<svg id="Layer_1" data-name="Layer 1" xmlns="http://www.w3.org/2000/svg" viewBox="0 0 344.89 474.74">
  <defs>
    <style>
      .cls-1 {
        fill: #93278f;
      }
    </style>
  </defs>
  <path class="cls-1" d="M21.52,0h86.81c11.88,0,21.52,9.64,21.52,21.52v333.22H0V21.52C0,9.64,9.64,0,21.52,0Z"/>
  <path class="cls-1" d="M173.91,242.29h0c32.31,0,58.53,26.23,58.53,58.53v166.36c0,66.23-53.77,120-120,120h0v-283.42c0-33.92,27.54-61.47,61.47-61.47Z" transform="translate(587.18 242.29) rotate(90)"/>
  <path class="cls-1" d="M129.85,234.74v120s120,0,120,0c-70.2,0-120-57.98-120-120Z"/>
  <path class="cls-1" d="M332.02,210.83c34.56,40.93-16.22,116.28-64.79,116.28-64.43,0-116.09-59.94-115.94-114.04S183.87,14.41,249.85,21.8c99.82,11.18,47.42,147.88,82.17,189.04Z"/>
</svg>